<svg xmlns="http://www.w3.org/2000/svg" width="1080" height="1350" viewBox="0 0 1080 1350">
<defs>
<clipPath id="env"><path d="M540,150 C770,150 870,300 860,465 C850,625 705,725 645,800 L435,800 C375,725 230,625 220,465 C210,300 310,150 540,150 Z"/></clipPath>
<pattern id="bd" width="22" height="22" patternUnits="userSpaceOnUse" patternTransform="rotate(30)"><circle cx="11" cy="11" r="5" fill="{{C1}}"/></pattern>
<pattern id="hd" width="26" height="26" patternUnits="userSpaceOnUse"><circle cx="13" cy="13" r="6" fill="{{DOT}}"/></pattern>
<pattern id="hl" width="18" height="18" patternUnits="userSpaceOnUse" patternTransform="rotate(-45)"><rect width="6" height="18" fill="{{INK}}" fill-opacity="0.35"/></pattern>
</defs>
<rect width="1080" height="1350" fill="{{BG}}"/>
<rect x="0" y="60" width="1080" height="10" fill="{{DOT}}"/>
<rect x="0" y="126" width="1080" height="12" fill="{{DOT}}"/>
<rect x="0" y="190" width="1080" height="14" fill="{{DOT}}"/>
<rect x="0" y="252" width="1080" height="17" fill="{{DOT}}"/>
<rect x="0" y="313" width="1080" height="20" fill="{{DOT}}"/>
<rect x="0" y="373" width="1080" height="24" fill="{{DOT}}"/>
<rect x="0" y="433" width="1080" height="28" fill="{{DOT}}"/>
<rect x="0" y="493" width="1080" height="32" fill="{{DOT}}"/>
<rect x="0" y="553" width="1080" height="36" fill="{{DOT}}"/>
<rect x="0" y="613" width="1080" height="40" fill="{{DOT}}"/>
<rect x="0" y="673" width="1080" height="44" fill="{{DOT}}"/>
<path d="M-20,1150 C180,1020 380,1040 560,1130 C720,1060 900,1010 1100,1090 L1100,1360 L-20,1360 Z" fill="{{C2}}" stroke="{{INK}}" stroke-width="12"/>
<path d="M-20,1150 C180,1020 380,1040 560,1130 C720,1060 900,1010 1100,1090 L1100,1360 L-20,1360 Z" fill="url(#hd)"/>
<path d="M-20,1150 C180,1020 380,1040 560,1130 C720,1060 900,1010 1100,1090" fill="none" stroke="{{INK}}" stroke-width="12"/>
<path d="M-20,1250 C200,1150 420,1160 600,1230 C780,1180 950,1170 1100,1210 L1100,1360 L-20,1360 Z" fill="{{C3}}" stroke="{{INK}}" stroke-width="12"/>
<path d="M-20,1250 C200,1150 420,1160 600,1230 C780,1180 950,1170 1100,1210 L1100,1360 L-20,1360 Z" fill="url(#hl)"/>
<path d="M-20,1250 C200,1150 420,1160 600,1230 C780,1180 950,1170 1100,1210" fill="none" stroke="{{INK}}" stroke-width="12"/>
<circle cx="120" cy="330" r="60" fill="{{INK}}"/>
<circle cx="185" cy="300" r="78" fill="{{INK}}"/>
<circle cx="255" cy="328" r="64" fill="{{INK}}"/>
<circle cx="190" cy="350" r="56" fill="{{INK}}"/>
<circle cx="120" cy="330" r="48" fill="#FFFFFF"/>
<circle cx="185" cy="300" r="66" fill="#FFFFFF"/>
<circle cx="255" cy="328" r="52" fill="#FFFFFF"/>
<circle cx="190" cy="350" r="44" fill="#FFFFFF"/>
<circle cx="820" cy="960" r="64" fill="{{INK}}"/>
<circle cx="890" cy="925" r="82" fill="{{INK}}"/>
<circle cx="965" cy="955" r="62" fill="{{INK}}"/>
<circle cx="890" cy="985" r="58" fill="{{INK}}"/>
<circle cx="820" cy="960" r="52" fill="#FFFFFF"/>
<circle cx="890" cy="925" r="70" fill="#FFFFFF"/>
<circle cx="965" cy="955" r="50" fill="#FFFFFF"/>
<circle cx="890" cy="985" r="46" fill="#FFFFFF"/>
<path d="M540,150 C770,150 870,300 860,465 C850,625 705,725 645,800 L435,800 C375,725 230,625 220,465 C210,300 310,150 540,150 Z" transform="translate(62,48)" fill="{{C3}}" stroke="{{INK}}" stroke-width="12"/>
<path d="M540,150 C770,150 870,300 860,465 C850,625 705,725 645,800 L435,800 C375,725 230,625 220,465 C210,300 310,150 540,150 Z" transform="translate(31,24)" fill="{{DOT}}" stroke="{{INK}}" stroke-width="12"/>
<line x1="445" y1="815" x2="478" y2="965" stroke="{{INK}}" stroke-width="9" stroke-linecap="round"/>
<line x1="505" y1="815" x2="515" y2="965" stroke="{{INK}}" stroke-width="9" stroke-linecap="round"/>
<line x1="575" y1="815" x2="565" y2="965" stroke="{{INK}}" stroke-width="9" stroke-linecap="round"/>
<line x1="635" y1="815" x2="602" y2="965" stroke="{{INK}}" stroke-width="9" stroke-linecap="round"/>
<rect x="462" y="955" width="156" height="110" rx="10" fill="{{C2}}" stroke="{{INK}}" stroke-width="12"/>
<line x1="490" y1="985" x2="490" y2="1060" stroke="{{INK}}" stroke-width="5"/>
<line x1="516" y1="985" x2="516" y2="1060" stroke="{{INK}}" stroke-width="5"/>
<line x1="542" y1="985" x2="542" y2="1060" stroke="{{INK}}" stroke-width="5"/>
<line x1="568" y1="985" x2="568" y2="1060" stroke="{{INK}}" stroke-width="5"/>
<line x1="594" y1="985" x2="594" y2="1060" stroke="{{INK}}" stroke-width="5"/>
<line x1="466" y1="1010" x2="614" y2="1010" stroke="{{INK}}" stroke-width="5"/>
<line x1="466" y1="1037" x2="614" y2="1037" stroke="{{INK}}" stroke-width="5"/>
<rect x="450" y="945" width="180" height="34" rx="8" fill="{{C1}}" stroke="{{INK}}" stroke-width="12"/>
<g clip-path="url(#env)">
<rect x="200" y="140" width="680" height="680" fill="{{C2}}"/>
<rect x="200" y="140" width="680" height="680" fill="url(#bd)" fill-opacity="0.55"/>
<path d="M540,150 C-50,215 -20,620 365,800 L400,800 C92,620 68,215 540,150 Z" fill="{{C1}}"/>
<path d="M540,150 C186,215 204,620 435,800 L470,800 C316,620 304,215 540,150 Z" fill="{{C1}}"/>
<path d="M540,150 C422,215 428,620 505,800 L540,800 C540,620 540,215 540,150 Z" fill="{{C1}}"/>
<path d="M540,150 C658,215 652,620 575,800 L610,800 C764,620 776,215 540,150 Z" fill="{{C1}}"/>
<path d="M540,150 C894,215 876,620 645,800 L680,800 C988,620 1012,215 540,150 Z" fill="{{C1}}"/>
<path d="M540,150 C68,215 92,620 400,800" fill="none" stroke="{{INK}}" stroke-width="8"/>
<path d="M540,150 C186,215 204,620 435,800" fill="none" stroke="{{INK}}" stroke-width="8"/>
<path d="M540,150 C304,215 316,620 470,800" fill="none" stroke="{{INK}}" stroke-width="8"/>
<path d="M540,150 C422,215 428,620 505,800" fill="none" stroke="{{INK}}" stroke-width="8"/>
<path d="M540,150 C540,215 540,620 540,800" fill="none" stroke="{{INK}}" stroke-width="8"/>
<path d="M540,150 C658,215 652,620 575,800" fill="none" stroke="{{INK}}" stroke-width="8"/>
<path d="M540,150 C776,215 764,620 610,800" fill="none" stroke="{{INK}}" stroke-width="8"/>
<path d="M540,150 C894,215 876,620 645,800" fill="none" stroke="{{INK}}" stroke-width="8"/>
<path d="M540,150 C1012,215 988,620 680,800" fill="none" stroke="{{INK}}" stroke-width="8"/>
<path d="M700,160 C900,260 900,600 700,800 L900,800 L900,140 Z" fill="url(#hl)"/>
<path d="M700,160 C900,260 900,600 700,800 L900,800 L900,140 Z" fill="{{INK}}" fill-opacity="0.18"/>
</g>
<path d="M540,150 C770,150 870,300 860,465 C850,625 705,725 645,800 L435,800 C375,725 230,625 220,465 C210,300 310,150 540,150 Z" fill="none" stroke="{{INK}}" stroke-width="14" stroke-linejoin="round"/>
<path d="M330,300 C370,235 430,205 470,200 C430,240 395,290 370,350 C355,340 340,325 330,300 Z" fill="#FFFFFF" stroke="{{INK}}" stroke-width="5"/>
<circle cx="316" cy="380" r="13" fill="#FFFFFF" stroke="{{INK}}" stroke-width="5"/>
<rect x="425" y="790" width="230" height="36" rx="8" fill="{{C3}}" stroke="{{INK}}" stroke-width="12"/>
<path d="M540,935 C515,905 528,880 540,858 C552,880 565,905 540,935 Z" fill="{{C2}}" stroke="{{INK}}" stroke-width="6"/>
<path d="M150,580 L161.2,608.8 L190,620 L161.2,631.2 L150,660 L138.8,631.2 L110,620 L138.8,608.8 Z" fill="#FFFFFF" stroke="{{INK}}" stroke-width="5" stroke-linejoin="round"/>
<path d="M930,204 L942.9,237.1 L976,250 L942.9,262.9 L930,296 L917.1,262.9 L884,250 L917.1,237.1 Z" fill="{{C2}}" stroke="{{INK}}" stroke-width="5" stroke-linejoin="round"/>
<path d="M960,534 L967.3,552.7 L986,560 L967.3,567.3 L960,586 L952.7,567.3 L934,560 L952.7,552.7 Z" fill="#FFFFFF" stroke="{{INK}}" stroke-width="5" stroke-linejoin="round"/>
<path d="M250,832 L257.8,852.2 L278,860 L257.8,867.8 L250,888 L242.2,867.8 L222,860 L242.2,852.2 Z" fill="{{C2}}" stroke="{{INK}}" stroke-width="5" stroke-linejoin="round"/>
<path d="M860,78 L866.2,93.8 L882,100 L866.2,106.2 L860,122 L853.8,106.2 L838,100 L853.8,93.8 Z" fill="#FFFFFF" stroke="{{INK}}" stroke-width="5" stroke-linejoin="round"/>
</svg>
